<?xml version="1.0" standalone="no"?>
<!DOCTYPE svg PUBLIC "-//W3C//DTD SVG 20010904//EN"
 "http://www.w3.org/TR/2001/REC-SVG-20010904/DTD/svg10.dtd">
<svg version="1.0" xmlns="http://www.w3.org/2000/svg"
 width="300.000000pt" height="300.000000pt" viewBox="0 0 300.000000 300.000000"
 preserveAspectRatio="xMidYMid meet">
<metadata>
Created by potrace 1.11, written by Peter Selinger 2001-2013
</metadata>
<g transform="translate(0.000000,300.000000) scale(0.100000,-0.100000)"
fill="#000000" stroke="none">
<path d="M359 2745 c0 -5 -2 -19 -4 -30 -2 -11 -7 -51 -10 -90 -3 -38 -7 -95
-10 -125 -2 -30 -7 -84 -10 -120 -7 -85 -14 -164 -19 -220 -3 -25 -8 -91 -12
-147 l-6 -103 46 0 c37 0 46 4 47 18 6 98 19 198 39 312 40 219 121 320 296
366 82 21 176 28 366 27 175 0 213 -7 236 -44 10 -16 13 -241 13 -1070 0 -577
-3 -1064 -6 -1082 -8 -39 -54 -73 -112 -82 -21 -3 -50 -8 -63 -10 -14 -3 -100
-6 -192 -7 l-168 -2 0 -57 0 -57 83 3 c119 5 1049 6 1203 1 l132 -3 -2 56 -1
56 -127 1 c-255 3 -356 21 -393 72 -19 27 -20 44 -19 1082 0 580 3 1067 7
1082 14 54 41 62 231 62 295 0 393 -15 502 -79 53 -31 91 -76 121 -144 26 -58
58 -188 66 -266 3 -27 8 -70 12 -95 3 -25 8 -63 10 -85 2 -22 4 -43 4 -47 1
-5 22 -8 47 -8 l46 0 -7 88 c-3 48 -8 105 -10 127 -5 40 -9 93 -21 235 -3 41
-7 89 -9 105 -5 61 -18 211 -20 243 -1 18 -5 35 -8 38 -10 11 -2277 10 -2278
-1z"/>
</g>
</svg>
