<?xml version="1.0" encoding="UTF-8"?>
<svg xmlns="http://www.w3.org/2000/svg" xmlns:xlink="http://www.w3.org/1999/xlink" width="65.72pt" height="65.72pt" viewBox="0 0 65.72 65.72" version="1.1">
<defs>
<clipPath id="clip1">
  <path d="M 0 0 L 65.71875 0 L 65.71875 65.71875 L 0 65.71875 Z M 0 0 "/>
</clipPath>
</defs>
<g id="surface1">
<path style=" stroke:none;fill-rule:evenodd;fill:rgb(12.998962%,51.998901%,81.999207%);fill-opacity:1;" d="M 28.875 32.859375 L 28.875 24.890625 C 28.875 22.6875 30.660156 20.90625 32.859375 20.90625 L 40.832031 20.90625 C 43.03125 20.90625 44.816406 22.6875 44.816406 24.890625 L 44.816406 32.859375 C 44.816406 35.0625 43.03125 36.84375 40.832031 36.84375 L 32.859375 36.84375 C 30.660156 36.84375 28.875 35.0625 28.875 32.859375 Z M 20.90625 40.832031 L 20.90625 32.859375 C 20.90625 30.660156 22.6875 28.875 24.890625 28.875 L 32.859375 28.875 C 35.0625 28.875 36.84375 30.660156 36.84375 32.859375 L 36.84375 40.832031 C 36.84375 43.03125 35.0625 44.816406 32.859375 44.816406 L 24.890625 44.816406 C 22.6875 44.816406 20.90625 43.03125 20.90625 40.832031 Z M 22.109375 62.058594 L 2.195312 27.570312 C 1.09375 25.65625 1.746094 23.214844 3.660156 22.109375 L 38.148438 2.195312 C 40.0625 1.09375 42.507812 1.746094 43.609375 3.660156 L 63.523438 38.148438 C 64.628906 40.0625 63.972656 42.507812 62.058594 43.609375 L 27.570312 63.523438 C 25.65625 64.628906 23.214844 63.972656 22.109375 62.058594 Z M 22.109375 62.058594 "/>
<g clip-path="url(#clip1)" clip-rule="nonzero">
<path style="fill:none;stroke-width:0.3985;stroke-linecap:butt;stroke-linejoin:miter;stroke:rgb(0%,0%,0%);stroke-opacity:1;stroke-miterlimit:10;" d="M -3.985 0.000625 L -3.985 7.969375 C -3.985 10.1725 -2.199844 11.95375 -0.000625 11.95375 L 7.972031 11.95375 C 10.17125 11.95375 11.956406 10.1725 11.956406 7.969375 L 11.956406 0.000625 C 11.956406 -2.2025 10.17125 -3.98375 7.972031 -3.98375 L -0.000625 -3.98375 C -2.199844 -3.98375 -3.985 -2.2025 -3.985 0.000625 Z M -11.95375 -7.972031 L -11.95375 0.000625 C -11.95375 2.199844 -10.1725 3.985 -7.969375 3.985 L -0.000625 3.985 C 2.2025 3.985 3.98375 2.199844 3.98375 0.000625 L 3.98375 -7.972031 C 3.98375 -10.17125 2.2025 -11.956406 -0.000625 -11.956406 L -7.969375 -11.956406 C -10.1725 -11.956406 -11.95375 -10.17125 -11.95375 -7.972031 Z M -10.750625 -29.198594 L -30.664687 5.289687 C -31.76625 7.20375 -31.113906 9.645156 -29.199844 10.750625 L 5.288438 30.664687 C 7.2025 31.76625 9.647813 31.113906 10.749375 29.199844 L 30.663438 -5.288438 C 31.768906 -7.2025 31.112656 -9.647813 29.198594 -10.749375 L -5.289687 -30.663438 C -7.20375 -31.768906 -9.645156 -31.112656 -10.750625 -29.198594 Z M -10.750625 -29.198594 " transform="matrix(1,0,0,-1,32.86,32.86)"/>
</g>
</g>
</svg>
